<svg width="336" height="64" viewBox="0 0 336 64" fill="none" xmlns="http://www.w3.org/2000/svg">
<path fill-rule="evenodd" clip-rule="evenodd" d="M29.0495 1.66094C27.413 0.753568 25.5244 0.238159 23.5113 0.238159C17.2429 0.238159 12.1812 5.2354 12.1812 11.5032C12.1812 11.6296 12.1834 11.7549 12.1876 11.8793C12.0564 11.8746 11.924 11.8722 11.7905 11.8722C10.4319 11.8722 9.17216 12.1252 8.02337 12.5311C3.65624 14.0372 0.460449 18.2037 0.460449 23.1372C0.460449 26.6714 2.10036 29.8119 4.63601 31.8628C2.10036 33.9137 0.460449 37.0542 0.460449 40.5883C0.460449 45.5217 3.656 49.6881 8.02287 51.1943C9.17179 51.6003 10.4317 51.8534 11.7905 51.8534C11.924 51.8534 12.0564 51.851 12.1876 51.8463C12.1834 51.9707 12.1812 52.096 12.1812 52.2224C12.1812 58.4902 17.2429 63.4874 23.5113 63.4874C29.7796 63.4874 34.8413 58.4902 34.8413 52.2224V23.8537C32.885 22.9756 31.155 21.6882 29.7624 20.1015V52.2224C29.7624 55.6496 27.0102 58.4084 23.5113 58.4084C20.0123 58.4084 17.2602 55.6496 17.2602 52.2224C17.2602 51.2913 17.4794 50.4173 17.885 49.5114C18.3144 48.5524 18.1088 47.4279 17.3678 46.6829C16.6269 45.9378 15.5036 45.7261 14.5422 46.1502C13.6258 46.5544 12.7382 46.7744 11.7905 46.7744C11.07 46.7744 10.3802 46.6412 9.70884 46.4032L9.70888 46.4031L9.68553 46.3951C7.28668 45.5709 5.53944 43.2771 5.53944 40.5883C5.53944 37.8996 7.28668 35.6058 9.68553 34.7815L9.68557 34.7817L9.70884 34.7734C10.3802 34.5354 11.07 34.4023 11.7905 34.4023C13.193 34.4023 14.33 33.2653 14.33 31.8628C14.33 30.4603 13.193 29.3233 11.7905 29.3233C11.07 29.3233 10.3802 29.1902 9.70884 28.9522L9.70888 28.9521L9.68553 28.944C7.28668 28.1198 5.53944 25.826 5.53944 23.1372C5.53944 20.4485 7.28668 18.1547 9.68553 17.3305L9.68557 17.3306L9.70884 17.3223C10.3802 17.0843 11.07 16.9512 11.7905 16.9512C12.7382 16.9512 13.6258 17.1711 14.5422 17.5754C15.5036 17.9995 16.6269 17.7877 17.3678 17.0427C18.1088 16.2976 18.3144 15.1732 17.885 14.2142C17.4794 13.3083 17.2602 12.4343 17.2602 11.5032C17.2602 8.07595 20.0123 5.31716 23.5113 5.31716C24.7031 5.31716 25.8083 5.63726 26.7476 6.19485C27.2489 4.54227 28.0351 3.01222 29.0495 1.66094Z" fill="url(#paint0_linear_424_29962)"/>
<path fill-rule="evenodd" clip-rule="evenodd" d="M29.7622 11.5032C29.7622 5.2354 34.8239 0.238159 41.0923 0.238159C47.3606 0.238159 52.4223 5.2354 52.4223 11.5032C52.4223 11.6296 52.4202 11.7549 52.4159 11.8793C52.5472 11.8746 52.6795 11.8722 52.813 11.8722C54.1717 11.8722 55.4314 12.1252 56.5802 12.5311C60.9473 14.0372 64.1431 18.2037 64.1431 23.1372C64.1431 26.6714 62.5032 29.8119 59.9675 31.8628C62.5032 33.9137 64.1431 37.0542 64.1431 40.5883C64.1431 45.5217 60.9476 49.6881 56.5807 51.1942C55.4318 51.6003 54.1719 51.8534 52.813 51.8534C52.6795 51.8534 52.5472 51.851 52.4159 51.8463C52.4202 51.9707 52.4223 52.096 52.4223 52.2224C52.4223 58.4902 47.3606 63.4874 41.0923 63.4874C34.8239 63.4874 29.7622 58.4902 29.7622 52.2224V11.5032ZM52.813 29.3233C53.5335 29.3233 54.2234 29.1902 54.8947 28.9522L54.918 28.9439L54.918 28.944C57.3169 28.1198 59.0641 25.826 59.0641 23.1372C59.0641 20.4485 57.3169 18.1547 54.918 17.3305L54.8947 17.3224L54.8947 17.3223C54.2234 17.0843 53.5335 16.9512 52.813 16.9512C51.8653 16.9512 50.9777 17.1711 50.0613 17.5754C49.1 17.9995 47.9767 17.7877 47.2357 17.0427C46.4947 16.2976 46.2892 15.1732 46.7186 14.2142C47.1242 13.3083 47.3433 12.4343 47.3433 11.5032C47.3433 8.07595 44.5912 5.31716 41.0923 5.31716C37.5933 5.31716 34.8412 8.07595 34.8412 11.5032V52.2224C34.8412 55.6496 37.5933 58.4084 41.0923 58.4084C44.5912 58.4084 47.3433 55.6496 47.3433 52.2224C47.3433 51.2913 47.1242 50.4173 46.7186 49.5114C46.2892 48.5524 46.4947 47.4279 47.2357 46.6829C47.9767 45.9378 49.1 45.7261 50.0613 46.1502C50.9777 46.5544 51.8653 46.7744 52.813 46.7744C53.5335 46.7744 54.2234 46.6412 54.8947 46.4032L54.918 46.395L54.918 46.3951C57.3169 45.5709 59.0641 43.2771 59.0641 40.5883C59.0641 37.8996 57.3169 35.6058 54.918 34.7815L54.8947 34.7735L54.8947 34.7734C54.2234 34.5354 53.5335 34.4023 52.813 34.4023C51.4105 34.4023 50.2735 33.2653 50.2735 31.8628C50.2735 30.4603 51.4105 29.3233 52.813 29.3233Z" fill="url(#paint1_linear_424_29962)"/>
<path d="M325.109 33.8012C325.109 31.1974 325.607 29.0758 326.603 27.4363C327.6 25.7969 328.886 24.5754 330.461 23.7717C332.036 22.9681 333.692 22.5663 335.427 22.5663V26.9059C333.981 26.9059 332.599 27.131 331.281 27.581C329.995 27.9989 328.934 28.7061 328.098 29.7026C327.295 30.667 326.893 31.9849 326.893 33.6565L325.109 33.8012ZM322.312 46.7719V22.6627H326.893V46.7719H322.312Z" fill="white"/>
<path d="M312.642 46.7718L312.352 42.3357V22.6626H316.885V46.7718H312.642ZM295.669 36.453V22.6626H300.25V35.0065L295.669 36.453ZM300.25 35.0065C300.25 37.1602 300.491 38.8157 300.973 39.973C301.487 41.1302 302.194 41.9338 303.095 42.3839C303.995 42.8339 305.007 43.075 306.132 43.1072C308.093 43.1072 309.62 42.416 310.713 41.0338C311.806 39.6515 312.352 37.7067 312.352 35.1994H314.329C314.329 37.7389 313.96 39.9248 313.22 41.757C312.481 43.5572 311.404 44.9395 309.99 45.9038C308.608 46.8682 306.936 47.3504 304.975 47.3504C302.082 47.3504 299.8 46.4503 298.128 44.6501C296.489 42.85 295.669 40.1176 295.669 36.453L300.25 35.0065Z" fill="white"/>
<path d="M280.139 47.3504C277.728 47.3504 275.607 46.82 273.774 45.7592C271.942 44.6662 270.495 43.1715 269.435 41.2749C268.406 39.3783 267.892 37.1924 267.892 34.7172C267.892 32.242 268.406 30.0561 269.435 28.1595C270.463 26.2629 271.894 24.7842 273.726 23.7234C275.558 22.6305 277.664 22.084 280.043 22.084C282.421 22.084 284.527 22.6305 286.359 23.7234C288.192 24.7842 289.622 26.2629 290.651 28.1595C291.679 30.0561 292.194 32.242 292.194 34.7172C292.194 37.1924 291.679 39.3783 290.651 41.2749C289.622 43.1715 288.192 44.6662 286.359 45.7592C284.559 46.82 282.486 47.3504 280.139 47.3504ZM280.139 43.1554C281.586 43.1554 282.871 42.8018 283.997 42.0946C285.122 41.3552 285.99 40.3587 286.6 39.105C287.243 37.8514 287.565 36.3888 287.565 34.7172C287.565 33.0456 287.243 31.583 286.6 30.3293C285.99 29.0756 285.106 28.0952 283.948 27.388C282.791 26.6487 281.489 26.279 280.043 26.279C278.564 26.279 277.262 26.6487 276.137 27.388C275.012 28.0952 274.128 29.0756 273.485 30.3293C272.842 31.583 272.521 33.0456 272.521 34.7172C272.521 36.3888 272.842 37.8514 273.485 39.105C274.128 40.3587 275.028 41.3552 276.185 42.0946C277.342 42.8018 278.66 43.1554 280.139 43.1554Z" fill="white"/>
<path d="M261.171 17.5515C260.399 17.5515 259.74 17.2782 259.194 16.7317C258.647 16.1531 258.374 15.4941 258.374 14.7548C258.374 13.9833 258.647 13.3243 259.194 12.7778C259.74 12.2314 260.399 11.9581 261.171 11.9581C261.942 11.9581 262.601 12.2314 263.148 12.7778C263.694 13.3243 263.967 13.9833 263.967 14.7548C263.967 15.4941 263.694 16.1531 263.148 16.7317C262.601 17.2782 261.942 17.5515 261.171 17.5515ZM255.819 57.1387C254.436 57.1387 252.845 56.7047 251.045 55.8368L252.829 52.0276C253.504 52.3169 254.099 52.5419 254.613 52.7026C255.127 52.8633 255.545 52.9437 255.867 52.9437C257.892 52.9437 258.905 51.6418 258.905 49.038V22.6626H263.437V49.2309C263.437 51.8025 262.794 53.7634 261.508 55.1135C260.222 56.4636 258.326 57.1387 255.819 57.1387Z" fill="white"/>
<path d="M247.784 46.7718L247.543 42.5768V34.1868C247.543 32.4188 247.334 30.9562 246.916 29.7989C246.53 28.6095 245.92 27.7095 245.084 27.0987C244.28 26.4879 243.203 26.1825 241.853 26.1825C240.6 26.1825 239.491 26.4397 238.526 26.954C237.594 27.4684 236.822 28.272 236.212 29.3649L232.065 27.822C232.644 26.729 233.383 25.7486 234.283 24.8806C235.183 24.0127 236.26 23.3377 237.514 22.8555C238.799 22.3411 240.278 22.084 241.95 22.084C244.2 22.084 246.08 22.5179 247.591 23.3859C249.134 24.2538 250.275 25.5557 251.015 27.2916C251.786 28.9953 252.156 31.1169 252.124 33.6564L252.076 46.7718H247.784ZM240.744 47.3504C237.883 47.3504 235.649 46.7075 234.042 45.4216C232.467 44.1037 231.679 42.2875 231.679 39.973C231.679 37.4978 232.499 35.6173 234.138 34.3314C235.81 33.0135 238.124 32.3545 241.082 32.3545H247.784V35.9709H242.335C240.117 35.9709 238.558 36.3245 237.658 37.0317C236.758 37.7067 236.308 38.655 236.308 39.8765C236.308 41.0016 236.726 41.8856 237.562 42.5286C238.43 43.1393 239.619 43.4447 241.13 43.4447C242.448 43.4447 243.573 43.1393 244.505 42.5286C245.47 41.9178 246.209 41.1141 246.723 40.1176C247.27 39.089 247.543 37.9478 247.543 36.6941H249.713C249.713 39.973 248.957 42.5768 247.447 44.5055C245.936 46.4021 243.702 47.3504 240.744 47.3504Z" fill="white"/>
<path d="M219.98 33.8012C219.98 31.1974 220.478 29.0758 221.475 27.4363C222.471 25.7969 223.757 24.5754 225.332 23.7717C226.907 22.9681 228.563 22.5663 230.298 22.5663V26.9059C228.852 26.9059 227.47 27.131 226.152 27.581C224.866 27.9989 223.805 28.7061 222.969 29.7026C222.166 30.667 221.764 31.9849 221.764 33.6565L219.98 33.8012ZM217.183 46.7719V22.6627H221.764V46.7719H217.183Z" fill="white"/>
<path d="M201.194 46.7717V15.8156H205.967V46.7717H201.194ZM190.634 17.3586V13.0189H216.527V17.3586H190.634Z" fill="white"/>
<path d="M181.775 46.7717L181.438 42.2874V13.0189H187.803V46.7717H181.775ZM174.205 47.3504C171.987 47.3504 170.058 46.836 168.419 45.8074C166.811 44.7787 165.558 43.3161 164.658 41.4195C163.758 39.5229 163.308 37.2888 163.308 34.7172C163.308 32.1134 163.758 29.8793 164.658 28.0148C165.558 26.1182 166.811 24.6556 168.419 23.627C170.058 22.5983 171.987 22.084 174.205 22.084C176.23 22.084 177.934 22.5983 179.316 23.627C180.731 24.6556 181.807 26.1182 182.547 28.0148C183.286 29.8793 183.656 32.1134 183.656 34.7172C183.656 37.2888 183.286 39.5229 182.547 41.4195C181.807 43.3161 180.731 44.7787 179.316 45.8074C177.934 46.836 176.23 47.3504 174.205 47.3504ZM175.844 41.5159C176.937 41.5159 177.902 41.2266 178.737 40.648C179.605 40.0694 180.28 39.2658 180.763 38.2371C181.245 37.2084 181.486 36.0351 181.486 34.7172C181.486 33.3992 181.245 32.2259 180.763 31.1972C180.28 30.1686 179.605 29.381 178.737 28.8345C177.902 28.2559 176.921 27.9666 175.796 27.9666C174.639 27.9666 173.626 28.2559 172.758 28.8345C171.89 29.381 171.199 30.1686 170.685 31.1972C170.171 32.2259 169.914 33.3992 169.914 34.7172C169.914 36.0351 170.171 37.2084 170.685 38.2371C171.199 39.2658 171.89 40.0694 172.758 40.648C173.658 41.2266 174.687 41.5159 175.844 41.5159Z" fill="white"/>
<path d="M137.686 46.7718V22.6626H143.665L144.051 27.0987V46.7718H137.686ZM153.646 46.7718V34.4279L160.011 32.9813V46.7718H153.646ZM153.646 34.4279C153.646 32.7884 153.453 31.5187 153.068 30.6186C152.714 29.7186 152.2 29.0756 151.525 28.6899C150.85 28.272 150.062 28.0631 149.162 28.0631C147.523 28.0309 146.253 28.5292 145.353 29.5578C144.485 30.5865 144.051 32.1134 144.051 34.1386H141.929C141.929 31.5669 142.299 29.3971 143.038 27.6291C143.81 25.8289 144.871 24.4628 146.221 23.5305C147.571 22.5662 149.162 22.084 150.994 22.084C153.92 22.084 156.154 22.9841 157.697 24.7842C159.272 26.5522 160.043 29.2846 160.011 32.9813L153.646 34.4279Z" fill="white"/>
<path d="M125.934 46.7718V22.6626H132.299V46.7718H125.934ZM129.117 18.7569C128.152 18.7569 127.301 18.4033 126.561 17.6961C125.822 16.9568 125.452 16.0888 125.452 15.0923C125.452 14.0958 125.822 13.244 126.561 12.5368C127.301 11.7974 128.152 11.4277 129.117 11.4277C130.113 11.4277 130.965 11.7974 131.672 12.5368C132.412 13.244 132.781 14.0958 132.781 15.0923C132.781 16.0888 132.412 16.9568 131.672 17.6961C130.965 18.4033 130.113 18.7569 129.117 18.7569Z" fill="white"/>
<path d="M102.625 38.6711L85.8928 14.3208L88.9788 13.4047L92.788 13.0189L105.952 32.5473L102.625 38.6711ZM85.6035 46.7717V13.0189H92.2094V46.7717H85.6035ZM102.625 38.6711L99.2975 32.5473L112.461 13.0189L116.27 13.4047L119.26 14.2244L102.625 38.6711ZM113.04 46.7717V13.0189H119.597V46.7717H113.04Z" fill="white"/>
<defs>
<linearGradient id="paint0_linear_424_29962" x1="17.6509" y1="2.77766" x2="17.6509" y2="60.9479" gradientUnits="userSpaceOnUse">
<stop stop-color="#0CB47F"/>
<stop offset="1" stop-color="#0B97FE"/>
</linearGradient>
<linearGradient id="paint1_linear_424_29962" x1="46.9527" y1="0.238159" x2="46.9527" y2="63.4874" gradientUnits="userSpaceOnUse">
<stop stop-color="#9747FF"/>
<stop offset="1" stop-color="#F47575"/>
</linearGradient>
</defs>
</svg>
